# xmcd CD database file
#
# Track frame offsets:
#	150
#	35773
#	57893
#	106318
#	131749
#	174051
#	202673
#	232230
#	265530
#
# Disc length: 4039 seconds
#
# Revision: 0
# Processed by: cddbd v1.5.2PL0 Copyright (c) Steve Scherf et al.
# Submitted via: CDex 1.70beta2
#
DISCID=720fc509
DTITLE=スガダイロー - ジャズ・テロリズム《豪快篇》
DYEAR=2009
DGENRE=Jazz
TTITLE0=But Not For Me
TTITLE1=I Loves You, Porgy
TTITLE2=The Man I Love
TTITLE3=Greensleaves
TTITLE4=Hi-Fly
TTITLE5=K. C. Blues
TTITLE6=Monk's Dream
TTITLE7=I Can't Get Started
TTITLE8=Confirmation
EXTD=YEAR: 2009
EXTT0=
EXTT1=
EXTT2=
EXTT3=
EXTT4=
EXTT5=
EXTT6=
EXTT7=
EXTT8=
PLAYORDER=
